<?xml version="1.0" encoding="utf-8" ?>
<svg baseProfile="full" height="1024" version="1.1" width="1024" xmlns="http://www.w3.org/2000/svg" xmlns:ev="http://www.w3.org/2001/xml-events" xmlns:xlink="http://www.w3.org/1999/xlink"><defs /><polygon fill="black" points="487,31 486,32 470,32 469,33 459,33 458,34 450,34 449,35 443,35 442,36 436,36 435,37 430,37 429,38 424,38 423,39 418,39 417,40 414,40 413,41 409,41 408,42 404,42 403,43 400,43 399,44 396,44 395,45 391,45 390,46 388,46 387,47 384,47 383,48 380,48 379,49 377,49 376,50 373,50 372,51 370,51 369,52 367,52 366,53 364,53 363,54 361,54 360,55 357,55 356,56 355,56 354,57 352,57 351,58 349,58 348,59 346,59 345,60 344,60 343,61 341,61 340,62 338,62 337,63 336,63 335,64 333,64 332,65 331,65 330,66 328,66 327,67 326,67 325,68 324,68 323,69 321,69 320,70 319,70 318,71 317,71 316,72 315,72 314,73 312,73 311,74 310,74 309,75 308,75 307,76 306,76 305,77 304,77 303,78 302,78 301,79 300,79 299,80 298,80 297,81 296,81 295,82 294,82 293,83 292,83 291,84 290,84 289,85 288,85 287,86 286,86 284,88 283,88 282,89 281,89 280,90 279,90 278,91 277,91 275,93 274,93 273,94 272,94 271,95 270,95 268,97 267,97 266,98 265,98 263,100 262,100 261,101 260,101 258,103 257,103 255,105 254,105 253,106 252,106 250,108 249,108 247,110 246,110 244,112 243,112 240,115 239,115 237,117 236,117 233,120 232,120 230,122 229,122 225,126 224,126 222,128 221,128 218,131 217,131 213,135 212,135 208,139 207,139 201,145 200,145 194,151 193,151 159,185 159,186 152,193 152,194 147,199 147,200 142,205 142,206 138,210 138,211 135,214 135,215 132,218 132,219 129,222 129,223 126,226 126,227 124,229 124,230 122,232 122,233 119,236 119,237 117,239 117,240 115,242 115,243 114,244 114,245 112,247 112,248 110,250 110,251 108,253 108,254 107,255 107,256 105,258 105,259 104,260 104,261 103,262 103,263 101,265 101,266 100,267 100,268 99,269 99,270 97,272 97,273 96,274 96,275 95,276 95,277 94,278 94,279 93,280 93,281 91,283 91,284 90,285 90,286 89,287 89,288 88,289 88,290 87,291 87,292 86,293 86,294 85,295 85,296 84,297 84,298 83,299 83,300 82,301 82,302 81,303 81,305 80,306 80,307 79,308 79,309 78,310 78,311 77,312 77,314 76,315 76,316 75,317 75,318 74,319 74,321 73,322 73,323 72,324 72,326 71,327 71,328 70,329 70,331 69,332 69,333 68,334 68,336 67,337 67,339 66,340 66,341 65,342 65,344 64,345 64,347 63,348 63,350 62,351 62,353 61,354 61,356 60,357 60,359 59,360 59,362 58,363 58,366 57,367 57,369 56,370 56,373 55,374 55,377 54,378 54,380 53,381 53,384 52,385 52,389 51,390 51,393 50,394 50,398 49,399 49,403 48,404 48,408 47,409 47,414 46,415 46,420 45,421 45,426 44,427 44,432 43,433 43,440 42,441 42,448 41,449 41,458 40,459 40,478 39,479 39,518 40,519 40,534 41,535 41,547 42,548 42,556 43,557 43,564 44,565 44,571 45,572 45,577 46,578 46,583 47,584 47,588 48,589 48,594 49,595 49,598 50,599 50,603 51,604 51,607 52,608 52,611 53,612 53,616 54,617 54,619 55,620 55,623 56,624 56,627 57,628 57,630 58,631 58,634 59,635 59,637 60,638 60,640 61,641 61,643 62,644 62,646 63,647 63,650 64,651 64,653 65,654 65,656 66,657 66,658 67,659 67,661 68,662 68,664 69,665 69,667 70,668 70,669 71,670 71,672 72,673 72,674 73,675 73,677 74,678 74,679 75,680 75,682 76,683 76,684 77,685 77,687 78,688 78,689 79,690 79,691 80,692 80,693 81,694 81,696 82,697 82,698 83,699 83,700 84,701 84,702 85,703 85,704 86,705 86,706 87,707 87,708 88,709 88,710 89,711 89,712 90,713 90,714 91,715 91,716 92,717 92,718 93,719 93,720 94,721 94,722 96,724 96,725 97,726 97,727 98,728 98,729 99,730 99,731 101,733 101,734 102,735 102,736 103,737 103,738 105,740 105,741 106,742 106,743 108,745 108,746 109,747 109,748 111,750 111,751 113,753 113,754 115,756 115,757 117,759 117,760 119,762 119,763 121,765 121,766 123,768 123,769 126,772 126,773 128,775 128,776 131,779 131,780 134,783 134,784 136,786 136,787 140,791 140,792 144,796 144,797 148,801 148,802 153,807 153,808 160,815 160,816 196,852 197,852 204,859 205,859 210,864 211,864 216,869 217,869 220,872 221,872 224,875 225,875 229,879 230,879 232,881 233,881 236,884 237,884 240,887 241,887 243,889 244,889 246,891 247,891 249,893 250,893 252,895 253,895 255,897 256,897 258,899 259,899 261,901 262,901 263,902 264,902 266,904 267,904 269,906 270,906 271,907 272,907 273,908 274,908 276,910 277,910 278,911 279,911 281,913 282,913 283,914 284,914 285,915 286,915 287,916 288,916 289,917 290,917 292,919 293,919 294,920 295,920 296,921 297,921 298,922 299,922 300,923 301,923 302,924 303,924 304,925 305,925 306,926 307,926 308,927 309,927 310,928 311,928 312,929 313,929 314,930 315,930 316,931 317,931 318,932 320,932 321,933 322,933 323,934 324,934 325,935 326,935 327,936 329,936 330,937 331,937 332,938 334,938 335,939 336,939 337,940 338,940 339,941 341,941 342,942 343,942 344,943 346,943 347,944 349,944 350,945 351,945 352,946 354,946 355,947 357,947 358,948 360,948 361,949 363,949 364,950 366,950 367,951 369,951 370,952 372,952 373,953 376,953 377,954 379,954 380,955 382,955 383,956 386,956 387,957 390,957 391,958 394,958 395,959 398,959 399,960 402,960 403,961 406,961 407,962 411,962 412,963 416,963 417,964 421,964 422,965 426,965 427,966 432,966 433,967 437,967 438,968 444,968 445,969 452,969 453,970 461,970 462,971 472,971 473,972 485,972 486,973 533,973 534,972 548,972 549,971 560,971 561,970 568,970 569,969 576,969 577,968 583,968 584,967 590,967 591,966 596,966 597,965 601,965 602,964 606,964 607,963 610,963 611,962 615,962 616,961 620,961 621,960 624,960 625,959 628,959 629,958 632,958 633,957 635,957 636,956 639,956 640,955 643,955 644,954 646,954 647,953 649,953 650,952 653,952 654,951 656,951 657,950 659,950 660,949 662,949 663,948 665,948 666,947 668,947 669,946 671,946 672,945 674,945 675,944 676,944 677,943 679,943 680,942 682,942 683,941 684,941 685,940 687,940 688,939 689,939 690,938 692,938 693,937 694,937 695,936 696,936 697,935 699,935 700,934 701,934 702,933 703,933 704,932 705,932 706,931 707,931 708,930 710,930 711,929 712,929 713,928 714,928 715,927 716,927 717,926 718,926 719,925 720,925 721,924 722,924 723,923 724,923 725,922 726,922 727,921 728,921 730,919 731,919 732,918 733,918 734,917 735,917 736,916 737,916 738,915 739,915 740,914 741,914 743,912 744,912 745,911 746,911 747,910 748,910 750,908 751,908 752,907 753,907 755,905 756,905 757,904 758,904 760,902 761,902 763,900 764,900 765,899 766,899 768,897 769,897 771,895 772,895 774,893 775,893 777,891 778,891 780,889 781,889 784,886 785,886 787,884 788,884 791,881 792,881 794,879 795,879 798,876 799,876 803,872 804,872 808,868 809,868 813,864 814,864 819,859 820,859 828,851 829,851 839,841 840,841 841,840 841,839 845,835 846,835 851,830 851,829 866,814 866,813 872,807 872,806 877,801 877,800 882,795 882,794 885,791 885,790 888,787 888,786 892,782 892,781 894,779 894,778 897,775 897,774 899,772 899,771 902,768 902,767 904,765 904,764 906,762 906,761 907,760 907,759 909,757 909,756 911,754 911,753 913,751 913,750 915,748 915,747 916,746 916,745 918,743 918,742 919,741 919,740 920,739 920,738 922,736 922,735 923,734 923,733 924,732 924,731 926,729 926,728 927,727 927,726 928,725 928,724 929,723 929,722 931,720 931,719 932,718 932,717 933,716 933,715 934,714 934,713 935,712 935,711 936,710 936,709 937,708 937,707 938,706 938,704 939,703 939,702 940,701 940,700 941,699 941,698 942,697 942,696 943,695 943,694 944,693 944,691 945,690 945,689 946,688 946,687 947,686 947,684 948,683 948,682 949,681 949,679 950,678 950,677 951,676 951,674 952,673 952,672 953,671 953,669 954,668 954,667 955,666 955,664 956,663 956,661 957,660 957,658 958,657 958,655 959,654 959,652 960,651 960,649 961,648 961,646 962,645 962,643 963,642 963,640 964,639 964,636 965,635 965,633 966,632 966,630 967,629 967,626 968,625 968,622 969,621 969,618 970,617 970,614 971,613 971,610 972,609 972,605 973,604 973,601 974,600 974,596 975,595 975,591 976,590 976,585 977,584 977,579 978,578 978,573 979,572 979,567 980,566 980,560 981,559 981,550 982,549 982,540 983,539 983,528 984,527 984,469 983,468 983,457 982,456 982,447 981,446 981,438 980,437 980,431 979,430 979,424 978,423 978,419 977,418 977,413 976,412 976,407 975,406 975,403 974,402 974,398 973,397 973,394 972,393 972,389 971,388 971,385 970,384 970,381 969,380 969,377 968,376 968,373 967,372 967,370 966,369 966,366 965,365 965,363 964,362 964,360 963,359 963,356 962,355 962,353 961,352 961,350 960,349 960,347 959,346 959,344 958,343 958,341 957,340 957,339 956,338 956,336 955,335 955,333 954,332 954,331 953,330 953,328 952,327 952,326 951,325 951,323 950,322 950,321 949,320 949,318 948,317 948,316 947,315 947,314 946,313 946,311 945,310 945,309 944,308 944,307 943,306 943,305 942,304 942,303 941,302 941,301 940,300 940,298 939,297 939,296 938,295 938,294 937,293 937,292 936,291 936,290 935,289 935,288 934,287 934,286 933,285 933,284 932,283 932,282 931,281 931,280 929,278 929,277 928,276 928,275 927,274 927,273 926,272 926,271 925,270 925,269 923,267 923,266 922,265 922,264 921,263 921,262 919,260 919,259 918,258 918,257 916,255 916,254 915,253 915,252 913,250 913,249 911,247 911,246 909,244 909,243 907,241 907,240 905,238 905,237 903,235 903,234 901,232 901,231 899,229 899,228 897,226 897,225 894,222 894,221 891,218 891,217 888,214 888,213 884,209 884,208 880,204 880,203 876,199 876,198 870,192 870,191 860,181 860,180 840,160 839,160 829,150 828,150 821,143 820,143 815,138 814,138 810,134 809,134 805,130 804,130 801,127 800,127 797,124 796,124 793,121 792,121 789,118 788,118 786,116 785,116 783,114 782,114 780,112 779,112 776,109 775,109 774,108 773,108 771,106 770,106 768,104 767,104 766,103 765,103 763,101 762,101 760,99 759,99 758,98 757,98 755,96 754,96 753,95 752,95 751,94 750,94 748,92 747,92 746,91 745,91 744,90 743,90 741,88 740,88 739,87 738,87 737,86 736,86 735,85 734,85 733,84 732,84 731,83 730,83 729,82 728,82 727,81 726,81 725,80 724,80 723,79 722,79 721,78 720,78 719,77 718,77 717,76 716,76 715,75 714,75 713,74 712,74 711,73 709,73 708,72 707,72 706,71 705,71 704,70 703,70 702,69 700,69 699,68 698,68 697,67 695,67 694,66 693,66 692,65 690,65 689,64 688,64 687,63 685,63 684,62 683,62 682,61 680,61 679,60 677,60 676,59 675,59 674,58 672,58 671,57 669,57 668,56 666,56 665,55 663,55 662,54 660,54 659,53 657,53 656,52 653,52 652,51 650,51 649,50 647,50 646,49 643,49 642,48 640,48 639,47 636,47 635,46 632,46 631,45 628,45 627,44 623,44 622,43 619,43 618,42 614,42 613,41 609,41 608,40 604,40 603,39 598,39 597,38 592,38 591,37 586,37 585,36 579,36 578,35 571,35 570,34 563,34 562,33 553,33 552,32 537,32 536,31" /></svg>